<?xml version="1.0" encoding="UTF-8" standalone="no"?>
<!-- Created with Inkscape (http://www.inkscape.org/) -->

<svg
   xmlns:dc="http://purl.org/dc/elements/1.1/"
   xmlns:cc="http://creativecommons.org/ns#"
   xmlns:rdf="http://www.w3.org/1999/02/22-rdf-syntax-ns#"
   xmlns:svg="http://www.w3.org/2000/svg"
   xmlns="http://www.w3.org/2000/svg"
   xmlns:sodipodi="http://sodipodi.sourceforge.net/DTD/sodipodi-0.dtd"
   xmlns:inkscape="http://www.inkscape.org/namespaces/inkscape"
   width="64"
   height="64"
   id="svg3355"
   version="1.1"
   inkscape:version="0.91 r13725"
   viewBox="0 0 64 64"
   sodipodi:docname="icon-linkedin.svg">
  <defs
     id="defs3357" />
  <sodipodi:namedview
     id="base"
     pagecolor="#ffffff"
     bordercolor="#666666"
     borderopacity="1.0"
     inkscape:pageopacity="0.0"
     inkscape:pageshadow="2"
     inkscape:zoom="11"
     inkscape:cx="42.591758"
     inkscape:cy="33.383019"
     inkscape:current-layer="layer1"
     showgrid="true"
     inkscape:document-units="px"
     inkscape:grid-bbox="true"
     showguides="true"
     inkscape:guide-bbox="true"
     inkscape:window-width="1920"
     inkscape:window-height="1017"
     inkscape:window-x="-8"
     inkscape:window-y="32"
     inkscape:window-maximized="1">
    <sodipodi:guide
       position="0,41.909091"
       orientation="1,0"
       id="guide3374" />
    <sodipodi:guide
       position="9.3636364,64"
       orientation="0,1"
       id="guide3376" />
  </sodipodi:namedview>
  <metadata
     id="metadata3360">
    <rdf:RDF>
      <cc:Work
         rdf:about="">
        <dc:format>image/svg+xml</dc:format>
        <dc:type
           rdf:resource="http://purl.org/dc/dcmitype/StillImage" />
        <dc:title></dc:title>
      </cc:Work>
    </rdf:RDF>
  </metadata>
  <g
     id="layer1"
     inkscape:label="Layer 1"
     inkscape:groupmode="layer">
    <path
       style="fill:#828282;fill-opacity:1"
       d="M 6.6467018,62.138319 C 4.8663873,61.785408 3.6715489,61.153324 2.4243807,59.90466 1.4005792,58.879628 0.70617564,57.586558 0.43931176,56.208201 0.19988382,54.97155 0.19738674,9.0237164 0.43670157,7.7634175 0.6929652,6.4137328 1.5247471,4.8930259 2.521423,3.9520207 3.563496,2.968155 4.2734722,2.5433951 5.6228596,2.0965126 l 1.0238654,-0.3390761 25.439102,0 25.439101,0 0.93239,0.3390558 c 1.91737,0.6972356 3.601352,2.1043472 4.412206,3.6867764 0.90224,1.7607685 0.871882,0.8483652 0.871882,26.2043613 0,25.355996 0.03036,24.443593 -0.871882,26.204362 -0.810854,1.58243 -2.494836,2.989541 -4.412206,3.686775 l -0.93239,0.339057 -25.124066,0.0227 C 18.582625,62.25299 6.9932634,62.207007 6.646725,62.138316 Z m 13.7827952,-23.457935 0,-13.385508 -4.331736,0 -4.331735,0 0,13.385508 0,13.38551 4.331735,0 4.331736,0 0,-13.38551 z M 34.44857,43.86915 c 0.07368,-7.598461 0.09837,-8.165135 0.38324,-8.79834 0.974191,-2.165419 2.297717,-2.989004 4.823294,-3.001379 1.705135,-0.0084 2.735286,0.421684 3.537028,1.476537 1.111471,1.462369 1.092555,1.291238 1.145333,10.360781 l 0.04747,8.159145 4.332768,0 4.332768,0 -0.05293,-9.813534 c -0.05207,-9.654679 -0.05863,-9.831357 -0.404861,-10.914604 -0.840407,-2.629355 -2.462562,-4.666683 -4.54815,-5.712191 -2.27583,-1.140877 -5.770882,-1.443989 -8.192859,-0.710534 -1.731282,0.524289 -3.062906,1.329083 -4.315093,2.607912 l -1.077155,1.100075 -0.0448,-1.626471 -0.0448,-1.626472 -4.134837,-0.0401 -4.13484,-0.0401 0,13.390503 0,13.390505 4.13484,-0.0401 4.134837,-0.0401 0.07876,-8.121544 z M 17.6035,21.530736 c 0.849242,-0.215662 1.966202,-0.988702 2.563373,-1.774094 1.910788,-2.513041 1.055901,-5.892593 -1.863864,-7.368255 -0.681265,-0.344313 -0.97897,-0.398439 -2.205248,-0.400934 -1.678044,-0.0035 -2.506372,0.308378 -3.604335,1.356721 -1.095516,1.046007 -1.429398,1.850514 -1.433101,3.45316 -0.0026,1.104855 0.06213,1.480048 0.352038,2.041752 0.516543,1.000847 1.310154,1.820075 2.222408,2.294147 1.311951,0.681781 2.414444,0.792206 3.968729,0.397503 z"
       id="path3378"
       inkscape:connector-curvature="0" />
  </g>
</svg>
